# xmcd
# 
# Track frame offsets:
#     150
#     18936
#     36067
#     53677
#     69590
#     85352
#     103436
#     120335
#     135541
#     155805
#     171497
#     189937
#     204193
#     218830
#     237505
#     252657
# 
# Disc length: 3599
# 
# Revision: 2
# Processed by: cddbd v1.5.2PL0 Copyright (c) Steve Scherf et al.
# Submitted via: BonkEnc v1.0
# 
DISCID=e40e0d10
DTITLE=eduardo costa - eduardo costa ao vivo
DYEAR=2006
DGENRE=sertanejo
TTITLE0=não preciso de voce
TTITLE1=me apaixonei(a primeira vez que te vi)
TTITLE2=linda demais
TTITLE3=na saideira
TTITLE4=passou
TTITLE5=minha estrela perdida(com alan e alex)
TTITLE6=olhando nos teus olhos
TTITLE7=a gente se enrosca
TTITLE8=sepração (com leonardo)
TTITLE9=não acredito
TTITLE10=amor de violeiro
TTITLE11=me engana que eu gosto
TTITLE12=eu quero este amor
TTITLE13=eu sou desejo , voce é paixão
TTITLE14=cena de um filme
TTITLE15=ilusão
EXTD=
EXTT0=
EXTT1=
EXTT2=
EXTT3=
EXTT4=
EXTT5=
EXTT6=
EXTT7=
EXTT8=
EXTT9=
EXTT10=
EXTT11=
EXTT12=
EXTT13=
EXTT14=
EXTT15=
PLAYORDER=
